<svg viewBox="0 0 40 40" fill="#fff" xmlns="http://www.w3.org/2000/svg">
<path d="M20.007 11.202c-0.001 0-0.001 0-0.002 0-4.856 0-8.793 3.937-8.793 8.793s3.937 8.793 8.793 8.793c4.856 0 8.793-3.937 8.793-8.793 0-0.001 0-0.001 0-0.002v0c-0.007-4.853-3.939-8.785-8.791-8.792h-0.001zM24.462 24.45c-1.14 1.141-2.716 1.846-4.457 1.846-3.48 0-6.302-2.821-6.302-6.302s2.821-6.302 6.302-6.302c3.48 0 6.301 2.821 6.302 6.3v0c0 0.005 0 0.010 0 0.016 0 1.735-0.705 3.306-1.845 4.441l-0 0z" fill="#fff"></path>
<path d="M37.362 12.663c-0.295-6.27-3.762-9.737-10.025-10.025-1.5-0.070-4.202-0.112-7.225-0.112-3.080 0-5.86 0.042-7.435 0.112-0.077-0.002-0.167-0.003-0.258-0.003-2.709 0-5.171 1.060-6.994 2.788l0.005-0.004c-2.963 2.962-2.935 6.965-2.897 12.5 0 0.667 0.010 1.357 0.010 2.070 0 0.667 0 1.313 0 1.938-0.033 5.833-0.053 9.692 2.893 12.638 2.693 2.692 6.267 2.907 10.667 2.907 0.573 0 1.167 0 1.773-0.010h0.057c0.667 0 1.368-0.010 2.087-0.010h0.195c6.545 0 9 0 11.348-0.912 3.588-1.393 5.598-4.582 5.812-9.222 0.137-3.185 0.137-11.275-0.013-14.655zM32.802 32.81c-2.062 2.062-4.788 2.167-9.833 2.167h-4.932c-6.058 0-8.825-0.088-10.908-2.177-2.262-2.252-2.225-5.667-2.167-10.407 0-0.765 0.017-1.568 0.017-2.412 0-0.69 0-1.365-0.012-2.022v-0.070c-0.065-7.205-0.113-12.412 7.758-12.815 1.132-0.040 3.5-0.048 5.285-0.048 1.585 0 1.947 0 2.030 0.022l-0.018-0.018q1.017 0 2-0.012h0.105c0.587 0 1.167-0.012 1.72-0.012 6.060 0 10.722 0.573 11.048 7.778 0.087 1.91 0.105 2.48 0.105 7.22v1.24c-0.013 6.428-0.012 9.368-2.198 11.565z" fill="#fff"></path>
<path d="M29.52 8.702c-0.001 0-0.001 0-0.002 0-0.983 0-1.78 0.797-1.78 1.78s0.797 1.78 1.78 1.78c0.983 0 1.78-0.797 1.78-1.78v0c-0.001-0.982-0.796-1.778-1.778-1.78h-0z" fill="#fff"></path>
</svg>