<svg width="16" height="16" viewBox="0 0 16 16" fill="none" xmlns="http://www.w3.org/2000/svg">
<path d="M13.1 1.99998H2.9C2.78356 1.99822 2.66791 2.01941 2.55966 2.06234C2.45141 2.10528 2.35267 2.16912 2.2691 2.25022C2.18552 2.33132 2.11874 2.42809 2.07257 2.535C2.0264 2.64191 2.00174 2.75687 2 2.87331V13.1266C2.00174 13.2431 2.0264 13.358 2.07257 13.465C2.11874 13.5719 2.18552 13.6686 2.2691 13.7497C2.35267 13.8308 2.45141 13.8947 2.55966 13.9376C2.66791 13.9806 2.78356 14.0017 2.9 14H13.1C13.2164 14.0017 13.3321 13.9806 13.4403 13.9376C13.5486 13.8947 13.6473 13.8308 13.7309 13.7497C13.8145 13.6686 13.8813 13.5719 13.9274 13.465C13.9736 13.358 13.9983 13.2431 14 13.1266V2.87331C13.9983 2.75687 13.9736 2.64191 13.9274 2.535C13.8813 2.42809 13.8145 2.33132 13.7309 2.25022C13.6473 2.16912 13.5486 2.10528 13.4403 2.06234C13.3321 2.01941 13.2164 1.99822 13.1 1.99998ZM5.55333 12.2266H3.8V6.52665H5.55333V12.2266ZM4.7 5.72665C4.42003 5.72489 4.15212 5.61243 3.95477 5.41383C3.75742 5.21523 3.64666 4.94662 3.64667 4.66665C3.64482 4.52843 3.67091 4.39127 3.72336 4.26338C3.77582 4.13549 3.85356 4.01951 3.95192 3.92239C4.05028 3.82528 4.16724 3.74902 4.29579 3.6982C4.42433 3.64738 4.56182 3.62304 4.7 3.62665C4.96403 3.6477 5.21043 3.76745 5.39012 3.96204C5.56982 4.15663 5.6696 4.41178 5.6696 4.67665C5.6696 4.94151 5.56982 5.19666 5.39012 5.39125C5.21043 5.58584 4.96403 5.70559 4.7 5.72665ZM12.3 12.1733H10.5V9.37331C10.5 8.70665 10.5 7.82665 9.55333 7.82665C8.60667 7.82665 8.5 8.57331 8.5 9.27331V12.1266H6.74667V6.52665H8.4V7.27331H8.44667C8.62601 6.98385 8.87628 6.74497 9.17378 6.5793C9.47128 6.41364 9.80615 6.32667 10.1467 6.32665C11.9467 6.32665 12.3 7.52665 12.3 9.07331V12.1733Z" fill="white"/>
</svg>
