<svg viewBox="0 0 40 40" fill="#fff" xmlns="http://www.w3.org/2000/svg">
<path d="M37.432 9.192c-1.196 0.545-2.583 0.942-4.037 1.121l-0.069 0.007c1.477-0.897 2.588-2.271 3.129-3.904l0.015-0.051c-1.308 0.788-2.831 1.389-4.453 1.718l-0.092 0.016c-1.309-1.391-3.162-2.258-5.217-2.258-3.952 0-7.157 3.204-7.157 7.157 0 0.577 0.068 1.138 0.197 1.675l-0.010-0.049c-5.958-0.31-11.198-3.141-14.713-7.439l-0.029-0.036c-0.609 1.030-0.968 2.271-0.968 3.595 0 2.471 1.252 4.649 3.156 5.936l0.025 0.016c-1.195-0.040-2.305-0.367-3.274-0.915l0.036 0.018v0.090c0.001 3.449 2.442 6.327 5.69 7.004l0.046 0.008c-0.565 0.159-1.214 0.251-1.885 0.252h-0c-0 0-0 0-0 0-0.476 0-0.942-0.049-1.391-0.141l0.044 0.008c0.942 2.862 3.564 4.904 6.671 4.968l0.008 0c-2.411 1.905-5.494 3.055-8.846 3.055-0.013 0-0.025 0-0.038-0h0.002c-0.601-0-1.193-0.035-1.776-0.103l0.071 0.007c3.104 2.018 6.901 3.218 10.978 3.218 11.23 0 20.333-9.104 20.333-20.333 0-0.006 0-0.012 0-0.018v0.001l-0.025-0.925c1.412-1.018 2.6-2.243 3.546-3.646l0.032-0.051z" fill="#fff"></path>
</svg>