<svg viewBox="0 0 40 40" fill="#fff" xmlns="http://www.w3.org/2000/svg">
<path d="M20.012 34.070c-0.095 0-10.435-0.098-13.598-0.407-0.115-0.023-0.247-0.038-0.4-0.055l-0.137-0.017c-1.51-0.051-2.867-0.664-3.877-1.635l0.002 0.002c-0.821-1.113-1.385-2.464-1.58-3.931l-0.005-0.044v-0.020c-0.239-1.917-0.385-4.158-0.405-6.428l-0-0.027v-3.030c0.020-2.297 0.166-4.538 0.433-6.741l-0.028 0.286v-0.020c0.2-1.508 0.764-2.855 1.602-3.988l-0.017 0.023c0.959-0.984 2.28-1.611 3.746-1.666l0.010-0h0.010c0.057 0 0.11 0 0.167-0.013l0.088-0.010c5.5-0.4 13.902-0.407 13.987-0.407h0.022c0.085 0 8.478 0 14 0.407l0.092 0.010c0.048 0 0.102 0.010 0.157 0.013h0.010c1.474 0.056 2.792 0.684 3.747 1.665l0.001 0.001c0.819 1.111 1.383 2.457 1.58 3.921l0.005 0.044v0.020c0.239 1.917 0.385 4.158 0.405 6.428l0 0.027v3.030c-0.020 2.297-0.166 4.538-0.433 6.741l0.028-0.286v0.020c-0.2 1.511-0.765 2.861-1.602 3.999l0.017-0.024c-0.956 0.983-2.274 1.61-3.738 1.666l-0.010 0h-0.010c-0.055 0-0.107 0-0.158 0.013l-0.090 0.010c-5.532 0.395-13.947 0.422-14.020 0.422zM15.885 13.947v11.24l10.805-5.602z" fill="#fff"></path>
</svg>